<svg viewBox="0 0 512 512" width="512" height="512" xmlns="http://www.w3.org/2000/svg">
  <rect width="512" height="512" fill="#FFE100" rx="112" ry="112" />
  <g transform="translate(6, 6)">
    <!-- Person A Bubble (Left, Pink) -->
    <path d="M 80 100 H 300 A 20 20 0 0 1 320 120 V 240 A 20 20 0 0 1 300 260 H 160 L 100 320 V 260 H 80 A 20 20 0 0 1 60 240 V 120 A 20 20 0 0 1 80 100 Z" transform="translate(16, 16)" fill="#000000" />
    <path d="M 80 100 H 300 A 20 20 0 0 1 320 120 V 240 A 20 20 0 0 1 300 260 H 160 L 100 320 V 260 H 80 A 20 20 0 0 1 60 240 V 120 A 20 20 0 0 1 80 100 Z" fill="#FF90E8" stroke="#000000" stroke-width="16" stroke-linejoin="round" />

    <!-- Person B Bubble (Right, Yellow/Cyan) -->
    <path d="M 200 180 H 420 A 20 20 0 0 1 440 200 V 320 A 20 20 0 0 1 420 340 H 400 V 400 L 340 340 H 200 A 20 20 0 0 1 180 320 V 200 A 20 20 0 0 1 200 180 Z" transform="translate(16, 16)" fill="#000000" />
    <path d="M 200 180 H 420 A 20 20 0 0 1 440 200 V 320 A 20 20 0 0 1 420 340 H 400 V 400 L 340 340 H 200 A 20 20 0 0 1 180 320 V 200 A 20 20 0 0 1 200 180 Z" fill="#00E5FF" stroke="#000000" stroke-width="16" stroke-linejoin="round" />

    <!-- Lightning Bolt (Center) -->
    <path d="M 280 100 L 160 250 H 240 L 200 400 L 340 220 H 260 Z" transform="translate(16, 16)" fill="#000000" />
    <path d="M 280 100 L 160 250 H 240 L 200 400 L 340 220 H 260 Z" fill="#FFFFFF" stroke="#000000" stroke-width="16" stroke-linejoin="round" />
  </g>
</svg>